<svg xmlns="http://www.w3.org/2000/svg" xmlns:xlink="http://www.w3.org/1999/xlink" width="426" zoomAndPan="magnify" viewBox="0 0 319.5 367.500003" height="490" preserveAspectRatio="xMidYMid meet" version="1.0"><defs><g/><clipPath id="39ef709327"><path d="M 0 0.0390625 L 319 0.0390625 L 319 366.964844 L 0 366.964844 Z M 0 0.0390625 " clip-rule="nonzero"/></clipPath><clipPath id="4117171049"><path d="M 94 289 L 175 289 L 175 345.996094 L 94 345.996094 Z M 94 289 " clip-rule="nonzero"/></clipPath><clipPath id="1ade7e0653"><path d="M 60 65 L 319 65 L 319 345.996094 L 60 345.996094 Z M 60 65 " clip-rule="nonzero"/></clipPath><clipPath id="34374aed6f"><path d="M 121 0.0390625 L 240 0.0390625 L 240 98 L 121 98 Z M 121 0.0390625 " clip-rule="nonzero"/></clipPath></defs><g clip-path="url(#39ef709327)"><path fill="#ffffff" d="M 0 0.0390625 L 319 0.0390625 L 319 366.964844 L 0 366.964844 Z M 0 0.0390625 " fill-opacity="1" fill-rule="nonzero"/></g><path fill="#274082" d="M 117.949219 255.78125 L 79.746094 232.253906 L 60.148438 251.867188 L 44.753906 329.011719 L 117.949219 255.78125 " fill-opacity="1" fill-rule="nonzero"/><g clip-path="url(#4117171049)"><path fill="#274082" d="M 151.394531 289.242188 L 94.863281 345.796875 L 156.582031 345.796875 L 174.90625 327.460938 L 151.394531 289.242188 " fill-opacity="1" fill-rule="nonzero"/></g><g clip-path="url(#1ade7e0653)"><path fill="#336dbf" d="M 234.800781 103.054688 C 229.003906 103.054688 224.300781 98.351562 224.300781 92.550781 C 224.300781 86.746094 229.003906 82.039062 234.800781 82.039062 C 240.605469 82.039062 245.304688 86.746094 245.304688 92.550781 C 245.304688 98.351562 240.605469 103.054688 234.800781 103.054688 Z M 126.253906 103.054688 C 120.453125 103.054688 115.75 98.351562 115.75 92.550781 C 115.75 86.746094 120.453125 82.039062 126.253906 82.039062 C 132.054688 82.039062 136.757812 86.746094 136.757812 92.550781 C 136.757812 98.351562 132.054688 103.054688 126.253906 103.054688 Z M 318.222656 338.625 L 275.359375 70.621094 C 274.800781 67.8125 272.339844 65.796875 269.476562 65.796875 L 91.578125 65.796875 C 88.71875 65.796875 86.257812 67.8125 85.695312 70.621094 L 60.148438 251.867188 L 79.746094 232.253906 L 209.738281 197.410156 L 174.90625 327.460938 L 156.582031 345.796875 L 312.34375 345.796875 C 316.125 345.796875 318.964844 342.339844 318.222656 338.625 " fill-opacity="1" fill-rule="nonzero"/></g><g clip-path="url(#34374aed6f)"><path fill="#274082" d="M 234.808594 97.125 C 232.28125 97.125 230.230469 95.070312 230.230469 92.550781 C 230.230469 67.417969 224.992188 46.0625 215.074219 30.773438 C 206.121094 16.976562 193.851562 9.382812 180.527344 9.382812 C 167.199219 9.382812 154.933594 16.976562 145.984375 30.773438 C 136.066406 46.0625 130.824219 67.417969 130.824219 92.550781 C 130.824219 95.070312 128.777344 97.125 126.253906 97.125 C 123.730469 97.125 121.679688 95.070312 121.679688 92.550781 C 121.679688 65.648438 127.433594 42.5625 138.316406 25.796875 C 149.011719 9.3125 164.003906 0.238281 180.527344 0.238281 C 197.054688 0.238281 212.046875 9.3125 222.742188 25.796875 C 233.625 42.5625 239.378906 65.648438 239.378906 92.550781 C 239.378906 95.070312 237.324219 97.125 234.808594 97.125 " fill-opacity="1" fill-rule="nonzero"/></g><path fill="#274082" d="M 75.09375 70.621094 L -0.0273438 324.597656 L 22.046875 317.515625 L 32.515625 330.628906 L 75.09375 70.621094 " fill-opacity="1" fill-rule="nonzero"/><g fill="#336dbf" fill-opacity="1"><g transform="translate(101.792532, 359.300602)"><g><path d="M 6 -2.265625 C 6 -1.898438 5.921875 -1.566406 5.765625 -1.265625 C 5.617188 -0.972656 5.414062 -0.71875 5.15625 -0.5 C 4.90625 -0.289062 4.613281 -0.128906 4.28125 -0.015625 C 3.957031 0.0976562 3.617188 0.15625 3.265625 0.15625 C 2.773438 0.15625 2.320312 0.0664062 1.90625 -0.109375 C 1.5 -0.296875 1.175781 -0.566406 0.9375 -0.921875 L 0.9375 0 L 0.171875 0 L 0.171875 -2.640625 L 0.9375 -2.640625 C 0.9375 -2.347656 1.003906 -2.078125 1.140625 -1.828125 C 1.285156 -1.578125 1.460938 -1.363281 1.671875 -1.1875 C 1.890625 -1.007812 2.132812 -0.867188 2.40625 -0.765625 C 2.6875 -0.671875 2.972656 -0.625 3.265625 -0.625 C 3.515625 -0.625 3.75 -0.660156 3.96875 -0.734375 C 4.1875 -0.804688 4.378906 -0.910156 4.546875 -1.046875 C 4.710938 -1.179688 4.84375 -1.347656 4.9375 -1.546875 C 5.03125 -1.742188 5.078125 -1.96875 5.078125 -2.21875 C 5.078125 -2.5 5.015625 -2.738281 4.890625 -2.9375 C 4.773438 -3.132812 4.613281 -3.300781 4.40625 -3.4375 C 4.195312 -3.582031 3.960938 -3.703125 3.703125 -3.796875 C 3.453125 -3.898438 3.191406 -4.003906 2.921875 -4.109375 C 2.609375 -4.222656 2.289062 -4.335938 1.96875 -4.453125 C 1.65625 -4.578125 1.375 -4.734375 1.125 -4.921875 C 0.875 -5.109375 0.671875 -5.335938 0.515625 -5.609375 C 0.359375 -5.878906 0.28125 -6.210938 0.28125 -6.609375 C 0.28125 -6.960938 0.351562 -7.273438 0.5 -7.546875 C 0.65625 -7.828125 0.851562 -8.0625 1.09375 -8.25 C 1.34375 -8.445312 1.628906 -8.59375 1.953125 -8.6875 C 2.285156 -8.789062 2.617188 -8.84375 2.953125 -8.84375 C 3.378906 -8.84375 3.769531 -8.753906 4.125 -8.578125 C 4.488281 -8.410156 4.769531 -8.148438 4.96875 -7.796875 L 4.96875 -8.703125 L 5.78125 -8.703125 L 5.78125 -6.21875 L 4.96875 -6.21875 C 4.96875 -6.476562 4.910156 -6.722656 4.796875 -6.953125 C 4.691406 -7.179688 4.546875 -7.375 4.359375 -7.53125 C 4.171875 -7.695312 3.957031 -7.828125 3.71875 -7.921875 C 3.476562 -8.015625 3.222656 -8.0625 2.953125 -8.0625 C 2.722656 -8.0625 2.5 -8.035156 2.28125 -7.984375 C 2.070312 -7.929688 1.882812 -7.847656 1.71875 -7.734375 C 1.5625 -7.617188 1.4375 -7.46875 1.34375 -7.28125 C 1.25 -7.09375 1.203125 -6.867188 1.203125 -6.609375 C 1.203125 -6.378906 1.257812 -6.179688 1.375 -6.015625 C 1.488281 -5.859375 1.640625 -5.71875 1.828125 -5.59375 C 2.015625 -5.476562 2.234375 -5.367188 2.484375 -5.265625 C 2.742188 -5.171875 3.003906 -5.070312 3.265625 -4.96875 C 3.585938 -4.851562 3.910156 -4.722656 4.234375 -4.578125 C 4.566406 -4.441406 4.859375 -4.269531 5.109375 -4.0625 C 5.367188 -3.863281 5.582031 -3.617188 5.75 -3.328125 C 5.914062 -3.035156 6 -2.679688 6 -2.265625 Z M 6 -2.265625 "/></g></g></g><g fill="#336dbf" fill-opacity="1"><g transform="translate(112.134871, 359.300602)"><g><path d="M 5.890625 0 L 4.96875 0 L 4.96875 -7.25 L 3.421875 -2.765625 L 2.78125 -2.765625 L 1.234375 -7.25 L 1.234375 0 L 0.328125 0 L 0.328125 -8.703125 L 1.515625 -8.703125 L 3.09375 -4.15625 L 4.703125 -8.703125 L 5.890625 -8.703125 Z M 5.890625 0 "/></g></g></g><g fill="#336dbf" fill-opacity="1"><g transform="translate(122.477209, 359.300602)"><g><path d="M 6.640625 0 L 5.65625 0 L 4.828125 -2.484375 L 1.390625 -2.484375 L 0.59375 0 L -0.390625 0 L 2.5 -8.703125 L 3.734375 -8.703125 Z M 4.578125 -3.296875 L 3.109375 -7.78125 L 1.65625 -3.296875 Z M 4.578125 -3.296875 "/></g></g></g><g fill="#336dbf" fill-opacity="1"><g transform="translate(132.819548, 359.300602)"><g><path d="M 6.296875 0 L 5.140625 0 L 2.59375 -3.734375 L 1.234375 -3.734375 L 1.234375 0 L 0.328125 0 L 0.328125 -8.703125 L 3.1875 -8.703125 C 4.144531 -8.703125 4.882812 -8.492188 5.40625 -8.078125 C 5.9375 -7.660156 6.203125 -7.039062 6.203125 -6.21875 C 6.203125 -5.851562 6.132812 -5.523438 6 -5.234375 C 5.875 -4.941406 5.695312 -4.691406 5.46875 -4.484375 C 5.25 -4.285156 4.984375 -4.125 4.671875 -4 C 4.367188 -3.875 4.035156 -3.796875 3.671875 -3.765625 Z M 5.25 -6.21875 C 5.25 -6.800781 5.066406 -7.226562 4.703125 -7.5 C 4.335938 -7.78125 3.832031 -7.921875 3.1875 -7.921875 L 1.234375 -7.921875 L 1.234375 -4.5 L 3.1875 -4.5 C 3.832031 -4.5 4.335938 -4.632812 4.703125 -4.90625 C 5.066406 -5.175781 5.25 -5.613281 5.25 -6.21875 Z M 5.25 -6.21875 "/></g></g></g><g fill="#336dbf" fill-opacity="1"><g transform="translate(143.161885, 359.300602)"><g><path d="M 6.21875 -5.765625 L 5.4375 -5.765625 L 5.4375 -7.921875 L 3.5625 -7.921875 L 3.5625 -0.78125 L 4.96875 -0.78125 L 4.96875 0 L 1.234375 0 L 1.234375 -0.78125 L 2.640625 -0.78125 L 2.640625 -7.921875 L 0.78125 -7.921875 L 0.78125 -5.765625 L 0 -5.765625 L 0 -8.703125 L 6.21875 -8.703125 Z M 6.21875 -5.765625 "/></g></g></g><g fill="#336dbf" fill-opacity="1"><g transform="translate(153.504222, 359.300602)"><g/></g></g><g fill="#336dbf" fill-opacity="1"><g transform="translate(163.846559, 359.300602)"><g><path d="M 4.96875 0 L 1.234375 0 L 1.234375 -0.78125 L 2.640625 -0.78125 L 2.640625 -7.921875 L 1.234375 -7.921875 L 1.234375 -8.703125 L 4.96875 -8.703125 L 4.96875 -7.921875 L 3.5625 -7.921875 L 3.5625 -0.78125 L 4.96875 -0.78125 Z M 4.96875 0 "/></g></g></g><g fill="#336dbf" fill-opacity="1"><g transform="translate(174.188896, 359.300602)"><g><path d="M 5.890625 0 L 4.75 0 L 1.234375 -7.359375 L 1.234375 0 L 0.328125 0 L 0.328125 -8.703125 L 1.609375 -8.703125 L 4.96875 -1.6875 L 4.96875 -8.703125 L 5.890625 -8.703125 Z M 5.890625 0 "/></g></g></g><g fill="#336dbf" fill-opacity="1"><g transform="translate(184.531232, 359.300602)"><g><path d="M 6.640625 -8.703125 L 3.734375 0 L 2.484375 0 L -0.390625 -8.703125 L 0.578125 -8.703125 L 3.109375 -0.921875 L 5.640625 -8.703125 Z M 6.640625 -8.703125 "/></g></g></g><g fill="#336dbf" fill-opacity="1"><g transform="translate(194.873569, 359.300602)"><g><path d="M 5.890625 0 L 0.328125 0 L 0.328125 -8.703125 L 5.890625 -8.703125 L 5.890625 -7.921875 L 1.234375 -7.921875 L 1.234375 -4.8125 L 4.671875 -4.8125 L 4.671875 -4.03125 L 1.234375 -4.03125 L 1.234375 -0.78125 L 5.890625 -0.78125 Z M 5.890625 0 "/></g></g></g><g fill="#336dbf" fill-opacity="1"><g transform="translate(205.215912, 359.300602)"><g><path d="M 5.890625 0 L 4.75 0 L 1.234375 -7.359375 L 1.234375 0 L 0.328125 0 L 0.328125 -8.703125 L 1.609375 -8.703125 L 4.96875 -1.6875 L 4.96875 -8.703125 L 5.890625 -8.703125 Z M 5.890625 0 "/></g></g></g><g fill="#336dbf" fill-opacity="1"><g transform="translate(215.558254, 359.300602)"><g><path d="M 6.21875 -5.765625 L 5.4375 -5.765625 L 5.4375 -7.921875 L 3.5625 -7.921875 L 3.5625 -0.78125 L 4.96875 -0.78125 L 4.96875 0 L 1.234375 0 L 1.234375 -0.78125 L 2.640625 -0.78125 L 2.640625 -7.921875 L 0.78125 -7.921875 L 0.78125 -5.765625 L 0 -5.765625 L 0 -8.703125 L 6.21875 -8.703125 Z M 6.21875 -5.765625 "/></g></g></g><g fill="#336dbf" fill-opacity="1"><g transform="translate(225.900596, 359.300602)"><g><path d="M 6.453125 -4.34375 C 6.453125 -3.757812 6.390625 -3.195312 6.265625 -2.65625 C 6.148438 -2.113281 5.957031 -1.632812 5.6875 -1.21875 C 5.425781 -0.800781 5.082031 -0.46875 4.65625 -0.21875 C 4.238281 0.03125 3.722656 0.15625 3.109375 0.15625 C 2.503906 0.15625 1.988281 0.03125 1.5625 -0.21875 C 1.132812 -0.46875 0.789062 -0.800781 0.53125 -1.21875 C 0.269531 -1.632812 0.0820312 -2.113281 -0.03125 -2.65625 C -0.15625 -3.195312 -0.21875 -3.757812 -0.21875 -4.34375 C -0.21875 -4.925781 -0.15625 -5.488281 -0.03125 -6.03125 C 0.0820312 -6.570312 0.269531 -7.050781 0.53125 -7.46875 C 0.800781 -7.882812 1.148438 -8.21875 1.578125 -8.46875 C 2.003906 -8.71875 2.515625 -8.84375 3.109375 -8.84375 C 3.710938 -8.84375 4.222656 -8.71875 4.640625 -8.46875 C 5.066406 -8.21875 5.410156 -7.882812 5.671875 -7.46875 C 5.941406 -7.050781 6.140625 -6.570312 6.265625 -6.03125 C 6.390625 -5.488281 6.453125 -4.925781 6.453125 -4.34375 Z M 5.53125 -4.34375 C 5.53125 -4.914062 5.472656 -5.429688 5.359375 -5.890625 C 5.253906 -6.347656 5.097656 -6.738281 4.890625 -7.0625 C 4.691406 -7.394531 4.441406 -7.644531 4.140625 -7.8125 C 3.835938 -7.976562 3.492188 -8.0625 3.109375 -8.0625 C 2.640625 -8.0625 2.25 -7.953125 1.9375 -7.734375 C 1.625 -7.515625 1.375 -7.222656 1.1875 -6.859375 C 1 -6.503906 0.867188 -6.101562 0.796875 -5.65625 C 0.722656 -5.21875 0.6875 -4.78125 0.6875 -4.34375 C 0.6875 -3.90625 0.722656 -3.460938 0.796875 -3.015625 C 0.867188 -2.578125 1 -2.179688 1.1875 -1.828125 C 1.375 -1.472656 1.625 -1.179688 1.9375 -0.953125 C 2.25 -0.734375 2.640625 -0.625 3.109375 -0.625 C 3.585938 -0.625 3.976562 -0.734375 4.28125 -0.953125 C 4.59375 -1.179688 4.84375 -1.472656 5.03125 -1.828125 C 5.21875 -2.179688 5.347656 -2.578125 5.421875 -3.015625 C 5.492188 -3.460938 5.53125 -3.90625 5.53125 -4.34375 Z M 5.53125 -4.34375 "/></g></g></g><g fill="#336dbf" fill-opacity="1"><g transform="translate(236.242939, 359.300602)"><g><path d="M 6.296875 0 L 5.140625 0 L 2.59375 -3.734375 L 1.234375 -3.734375 L 1.234375 0 L 0.328125 0 L 0.328125 -8.703125 L 3.1875 -8.703125 C 4.144531 -8.703125 4.882812 -8.492188 5.40625 -8.078125 C 5.9375 -7.660156 6.203125 -7.039062 6.203125 -6.21875 C 6.203125 -5.851562 6.132812 -5.523438 6 -5.234375 C 5.875 -4.941406 5.695312 -4.691406 5.46875 -4.484375 C 5.25 -4.285156 4.984375 -4.125 4.671875 -4 C 4.367188 -3.875 4.035156 -3.796875 3.671875 -3.765625 Z M 5.25 -6.21875 C 5.25 -6.800781 5.066406 -7.226562 4.703125 -7.5 C 4.335938 -7.78125 3.832031 -7.921875 3.1875 -7.921875 L 1.234375 -7.921875 L 1.234375 -4.5 L 3.1875 -4.5 C 3.832031 -4.5 4.335938 -4.632812 4.703125 -4.90625 C 5.066406 -5.175781 5.25 -5.613281 5.25 -6.21875 Z M 5.25 -6.21875 "/></g></g></g><g fill="#336dbf" fill-opacity="1"><g transform="translate(246.585281, 359.300602)"><g><path d="M 6.34375 -7.921875 L 5.640625 -7.921875 L 3.5625 -3.75 L 3.5625 -0.78125 L 4.96875 -0.78125 L 4.96875 0 L 1.234375 0 L 1.234375 -0.78125 L 2.640625 -0.78125 L 2.640625 -3.75 L 0.578125 -7.921875 L -0.140625 -7.921875 L -0.140625 -8.703125 L 2.328125 -8.703125 L 2.328125 -7.921875 L 1.59375 -7.921875 L 3.109375 -4.640625 L 4.609375 -7.921875 L 3.890625 -7.921875 L 3.890625 -8.703125 L 6.34375 -8.703125 Z M 6.34375 -7.921875 "/></g></g></g></svg>