<?xml version="1.0" standalone="no"?>
<!DOCTYPE svg PUBLIC "-//W3C//DTD SVG 20010904//EN"
 "http://www.w3.org/TR/2001/REC-SVG-20010904/DTD/svg10.dtd">
<svg version="1.0" xmlns="http://www.w3.org/2000/svg"
 width="1563.000000pt" height="1563.000000pt" viewBox="0 0 1563.000000 1563.000000"
 preserveAspectRatio="xMidYMid meet">

<g transform="translate(0.000000,1563.000000) scale(0.100000,-0.100000)"
fill="#000000" stroke="none">
<path d="M8093 12460 c-82 -12 -214 -58 -296 -104 -323 -180 -552 -560 -657
-1088 l-11 -58 -322 0 c-302 0 -324 -1 -354 -20 -22 -13 -35 -31 -42 -57 -6
-21 -119 -811 -251 -1755 l-241 -1717 -148 -742 -149 -741 694 693 c382 382
693 698 691 703 -3 9 -704 446 -715 446 -4 0 -56 -48 -117 -107 l-110 -108
110 112 110 113 1240 333 c783 211 1241 329 1243 322 2 -8 -624 -2372 -654
-2468 -4 -13 -70 87 -226 340 -120 197 -223 361 -226 365 -4 4 -248 -233 -542
-527 -294 -294 -532 -536 -529 -539 2 -3 946 -2 2097 1 l2093 6 30 28 c24 22
29 35 29 71 0 79 -818 5176 -835 5201 -29 45 -48 47 -385 47 l-320 0 -5 23
c-3 12 -14 67 -26 122 -119 565 -445 983 -848 1086 -88 23 -241 31 -328 19z
m287 -186 c30 -8 97 -35 149 -60 80 -39 108 -61 190 -143 134 -133 230 -285
306 -486 29 -76 95 -324 95 -355 0 -20 -13 -20 -905 -20 l-905 0 0 23 c0 12
13 74 29 137 79 309 193 526 370 700 101 100 191 156 311 195 110 36 239 39
360 9z m-1289 -1488 c-2 -99 11 -147 44 -160 31 -12 73 -6 96 13 22 17 25 30
30 125 3 58 9 109 12 113 13 12 76 -59 93 -104 64 -167 -117 -334 -275 -254
-130 67 -156 226 -53 329 24 24 46 41 49 38 3 -3 5 -48 4 -100z m2332 22 c83
-135 -16 -308 -176 -308 -132 0 -230 143 -188 273 11 32 75 107 92 107 3 0 9
-48 13 -107 6 -99 8 -110 32 -130 43 -39 105 -29 131 20 12 25 14 49 8 130
l-7 100 33 -20 c19 -10 47 -40 62 -65z"/>
<path d="M6181 11054 c0 -11 3 -14 6 -6 3 7 2 16 -1 19 -3 4 -6 -2 -5 -13z"/>
<path d="M5472 8649 c-387 -1310 -701 -2383 -700 -2384 2 -2 93 26 203 61 110
35 203 64 207 64 4 0 51 -55 105 -121 53 -67 98 -118 100 -113 8 29 793 4859
791 4866 -2 5 -320 -1063 -706 -2373z"/>
<path d="M5005 5118 c-3 -7 -4 -260 -3 -563 l3 -550 90 0 90 0 3 563 2 562
-90 0 c-63 0 -92 -4 -95 -12z"/>
<path d="M5340 4565 l0 -566 93 3 92 3 5 310 5 310 111 -310 111 -310 89 0 89
0 0 560 0 560 -92 3 -93 3 0 -313 c0 -171 -4 -308 -8 -302 -5 5 -44 108 -87
229 -42 121 -91 257 -107 303 l-30 82 -89 0 -89 0 0 -565z"/>
<path d="M6060 5108 c0 -34 232 -1082 243 -1095 6 -9 38 -13 92 -13 54 0 86 4
93 13 13 16 253 1097 246 1108 -3 5 -43 9 -90 9 -78 0 -85 -2 -94 -22 -5 -13
-39 -176 -75 -363 -61 -314 -82 -410 -84 -378 -1 19 -140 724 -147 745 -5 16
-17 18 -95 18 -85 0 -89 -1 -89 -22z"/>
<path d="M6855 5118 c-3 -7 -4 -260 -3 -563 l3 -550 274 -3 c213 -2 276 1 283
10 12 20 10 152 -4 166 -8 8 -65 12 -190 12 l-178 0 0 140 0 139 143 3 142 3
0 90 0 90 -142 3 -143 3 0 139 0 140 178 0 c125 0 182 4 190 12 12 12 17 134
6 162 -5 14 -40 16 -280 16 -211 0 -276 -3 -279 -12z"/>
<path d="M7562 4568 l3 -563 90 0 90 0 5 310 c3 178 9 301 13 290 5 -11 53
-144 107 -295 54 -151 102 -283 106 -293 6 -15 18 -17 93 -15 l86 3 3 563 2
563 -92 -3 -93 -3 -5 -310 -5 -310 -59 165 c-33 91 -83 230 -112 310 l-52 145
-91 3 -91 3 2 -563z"/>
<path d="M8280 5040 l0 -90 90 0 90 0 2 -472 3 -473 92 -3 93 -3 2 473 3 473
93 3 92 3 0 89 0 90 -280 0 -280 0 0 -90z"/>
<path d="M8960 4565 l0 -566 93 3 92 3 0 560 0 560 -92 3 -93 3 0 -566z"/>
<path d="M9292 4568 l3 -563 90 0 90 0 3 233 2 232 133 0 c72 0 138 4 145 9 9
5 12 31 10 92 l-3 84 -142 3 -143 3 0 144 0 145 185 0 185 0 0 90 0 90 -280 0
-280 0 2 -562z"/>
<path d="M9958 5124 c-8 -8 -17 14 133 -351 l129 -313 2 -227 3 -228 84 -3
c61 -2 87 1 92 10 5 7 9 115 9 239 l0 226 131 317 c80 196 127 322 121 328 -5
5 -49 8 -98 6 l-88 -3 -81 -207 c-44 -114 -82 -204 -85 -202 -2 3 -41 96 -85
207 l-80 202 -90 3 c-50 1 -94 0 -97 -4z"/>
<path d="M4705 3706 c-32 -14 -55 -51 -55 -90 0 -33 43 -72 100 -91 64 -21
100 -50 100 -81 0 -62 -97 -88 -145 -39 -14 13 -25 31 -25 40 0 8 -9 15 -20
15 -18 0 -20 -7 -20 -55 0 -48 2 -55 20 -55 11 0 20 6 20 14 0 10 9 9 39 -6
48 -23 98 -17 135 17 56 52 39 129 -36 161 -108 48 -123 58 -126 90 -3 35 11
51 54 59 37 7 94 -26 94 -55 0 -13 7 -20 20 -20 17 0 20 7 20 50 0 43 -3 50
-20 50 -11 0 -20 -4 -20 -9 0 -6 -12 -3 -27 5 -34 17 -69 17 -108 0z"/>
<path d="M9882 3700 c-51 -31 -76 -96 -70 -184 8 -115 50 -168 134 -170 84 -2
138 70 138 184 0 148 -100 232 -202 170z m122 -42 c82 -82 46 -278 -51 -278
-72 0 -103 45 -103 152 0 73 22 126 60 145 39 20 59 16 94 -19z"/>
<path d="M5080 3530 c0 -173 1 -180 20 -180 19 0 20 7 21 148 l0 147 32 -87
c42 -115 54 -115 92 0 l30 87 3 -147 c2 -140 4 -148 22 -148 19 0 20 7 20 180
l0 180 -28 0 c-25 0 -29 -6 -57 -85 -16 -47 -32 -85 -36 -85 -4 0 -20 38 -35
85 -26 80 -30 85 -56 85 l-28 0 0 -180z"/>
<path d="M5547 3537 c-31 -95 -57 -176 -57 -180 0 -4 8 -7 18 -7 13 0 23 14
33 48 l15 47 74 0 74 0 15 -47 c12 -39 19 -48 37 -48 22 0 21 5 -38 180 -58
174 -61 180 -87 180 -25 0 -28 -6 -84 -173z m112 51 c13 -40 26 -79 28 -85 4
-10 -11 -13 -57 -13 -46 0 -61 3 -57 13 2 6 15 45 28 85 12 39 26 72 29 72 3
0 17 -33 29 -72z"/>
<path d="M5950 3531 c0 -152 2 -181 15 -181 11 0 15 18 17 78 3 75 4 77 29 80
23 3 33 -7 80 -77 42 -62 59 -80 78 -81 23 0 23 0 6 28 -10 15 -33 49 -52 75
-19 27 -33 50 -31 51 2 2 18 8 36 16 18 7 39 22 47 34 23 32 19 90 -9 123 -23
26 -29 28 -120 31 l-96 4 0 -181z m180 129 c11 -11 20 -33 20 -50 0 -50 -30
-70 -105 -70 l-65 0 0 70 0 70 65 0 c52 0 69 -4 85 -20z"/>
<path d="M6370 3650 c0 -47 3 -60 15 -60 11 0 15 12 15 45 l0 45 40 0 41 0 -3
-147 -3 -148 -27 -3 c-16 -2 -28 -9 -28 -18 0 -11 17 -14 75 -14 58 0 75 3 75
14 0 9 -12 16 -27 18 l-28 3 -3 148 -3 147 41 0 40 0 0 -45 c0 -33 4 -45 15
-45 12 0 15 13 15 60 l0 60 -125 0 -125 0 0 -60z"/>
<path d="M7280 3695 c0 -10 10 -15 30 -15 l30 0 0 -150 0 -150 -30 0 c-20 0
-30 -5 -30 -15 0 -12 15 -15 75 -15 60 0 75 3 75 15 0 9 -9 15 -25 15 l-25 0
0 150 0 150 25 0 c16 0 25 6 25 15 0 12 -15 15 -75 15 -60 0 -75 -3 -75 -15z"/>
<path d="M7670 3530 c0 -173 1 -180 20 -180 19 0 20 7 21 153 l0 152 74 -152
c67 -139 76 -153 99 -153 l26 0 0 180 c0 173 -1 180 -20 180 -19 0 -20 -7 -21
-142 l-1 -143 -70 143 c-66 134 -72 142 -99 142 l-29 0 0 -180z"/>
<path d="M8084 3694 c4 -9 30 -90 58 -180 50 -159 53 -164 79 -164 26 0 29 6
88 181 56 169 59 180 39 177 -18 -2 -30 -28 -74 -158 -59 -178 -48 -181 -114
29 -35 112 -44 131 -62 131 -15 0 -18 -5 -14 -16z"/>
<path d="M8540 3530 l0 -180 115 0 c94 0 115 3 115 15 0 11 -20 15 -97 17
l-98 3 0 65 0 65 73 3 c55 2 72 6 72 17 0 12 -16 15 -75 15 l-75 0 0 65 0 65
100 0 c82 0 100 3 100 15 0 12 -19 15 -115 15 l-115 0 0 -180z"/>
<path d="M8970 3530 c0 -173 1 -180 20 -180 19 0 20 7 21 148 l0 147 71 -147
c62 -128 74 -148 95 -148 l23 0 0 180 c0 173 -1 180 -20 180 -19 0 -20 -7 -21
-137 l-1 -138 -66 137 c-62 127 -69 138 -94 138 l-28 0 0 -180z"/>
<path d="M9390 3650 c0 -47 3 -60 15 -60 11 0 15 12 15 45 l0 45 40 0 40 0 0
-150 0 -150 -30 0 c-20 0 -30 -5 -30 -15 0 -12 15 -15 75 -15 60 0 75 3 75 15
0 9 -9 15 -25 15 l-25 0 0 150 0 150 35 0 c35 0 35 0 35 -45 0 -38 3 -45 20
-45 18 0 20 7 20 60 l0 60 -130 0 -130 0 0 -60z"/>
<path d="M10260 3530 c0 -172 1 -180 20 -180 17 0 19 8 22 78 3 75 4 77 29 80
22 3 33 -8 79 -77 42 -65 57 -81 77 -81 27 0 29 -4 -35 88 -24 35 -43 64 -41
66 2 1 19 8 37 16 55 22 76 84 48 139 -21 39 -56 51 -151 51 l-85 0 0 -180z
m184 129 c32 -25 35 -70 6 -99 -16 -16 -33 -20 -85 -20 l-65 0 0 70 0 70 59 0
c44 0 65 -5 85 -21z"/>
<path d="M10680 3695 c0 -8 6 -15 13 -15 7 0 32 -38 55 -85 36 -74 42 -94 42
-150 l0 -65 -30 0 c-20 0 -30 -5 -30 -15 0 -12 16 -15 80 -15 64 0 80 3 80 15
0 10 -10 15 -30 15 l-30 0 0 60 c0 52 7 73 45 150 27 53 51 90 60 90 8 0 15 7
15 15 0 11 -12 15 -50 15 -36 0 -50 -4 -50 -14 0 -8 5 -16 11 -18 7 -2 0 -28
-19 -68 l-30 -65 -30 65 c-23 51 -27 66 -16 68 8 2 14 10 14 18 0 10 -13 14
-50 14 -38 0 -50 -4 -50 -15z"/>
</g>
</svg>
